<svg width="95" height="103" viewBox="0 0 95 103" fill="none" xmlns="http://www.w3.org/2000/svg">
<g clip-path="url(#clip0_238_291)">
<path d="M95 47.5391C95 34.8424 90.059 22.9036 81.0867 13.9243C72.1174 4.94497 60.1881 0 47.5014 0C34.8148 0 22.8855 4.94497 13.9133 13.9243C4.94105 22.9036 0 34.8396 0 47.5391C0 47.6832 0.0172764 47.8244 0.0460704 47.9599C0.0172764 48.3114 0 48.6659 0 49.0232C0 50.1182 0.886855 51.0029 1.97815 51.0029C3.06944 51.0029 3.95629 50.1153 3.95629 49.0232C3.95629 43.8362 8.17461 39.6145 13.3575 39.6145C18.5404 39.6145 22.7588 43.8362 22.7588 49.0232C22.7588 50.1182 23.6456 51.0029 24.7369 51.0029C25.8282 51.0029 26.7151 50.1153 26.7151 49.0232C26.7151 43.8362 30.9334 39.6145 36.1163 39.6145C41.2992 39.6145 45.5175 43.8362 45.5175 49.0232V94.0841C45.5175 96.8159 43.2975 99.0348 40.5707 99.0348C37.8439 99.0348 35.6239 96.813 35.6239 94.0841C35.6239 92.989 34.7371 92.1044 33.6458 92.1044C32.5545 92.1044 31.6676 92.9919 31.6676 94.0841C31.6676 99.0002 35.6642 102.997 40.5736 102.997C45.483 102.997 49.4796 98.9973 49.4796 94.0841V49.0232C49.4796 43.8362 53.6979 39.6145 58.8808 39.6145C64.0637 39.6145 68.2821 43.8362 68.2821 49.0232C68.2821 50.1182 69.1689 51.0029 70.2602 51.0029C71.3515 51.0029 72.2384 50.1153 72.2384 49.0232C72.2384 43.8362 76.4567 39.6145 81.6396 39.6145C86.8225 39.6145 91.0408 43.8362 91.0408 49.0232C91.0408 50.1182 91.9277 51.0029 93.019 51.0029C94.1103 51.0029 94.9971 50.1153 94.9971 49.0232C94.9971 48.6659 94.9799 48.3114 94.9511 47.9599C94.9799 47.8244 94.9971 47.6832 94.9971 47.5391H95ZM13.3604 35.6522C10.1326 35.6522 7.16682 36.8049 4.85467 38.7183C8.14582 22.7567 20.1817 9.9591 35.7103 5.58182C33.4788 7.87564 31.4315 10.8409 29.6348 14.4344C26.1248 21.4599 23.8645 30.2951 23.0755 39.8566C20.6367 37.2688 17.1843 35.6493 13.3604 35.6493V35.6522ZM36.1192 35.6522C32.6495 35.6522 29.485 36.9835 27.1095 39.1592C27.9273 30.4969 30.0091 22.5434 33.1764 16.2066C36.6288 9.29919 40.9508 5.10634 45.5204 4.16115V39.5309C43.1046 37.1334 39.7818 35.6493 36.1192 35.6493V35.6522ZM58.8808 35.6522C55.2182 35.6522 51.8954 37.1362 49.4796 39.5338V4.16403C54.0492 5.10634 58.3741 9.30207 61.8236 16.2095C64.9909 22.5463 67.0727 30.4969 67.8905 39.1621C65.5121 36.9835 62.3505 35.6551 58.8808 35.6551V35.6522ZM81.6425 35.6522C77.8158 35.6522 74.3633 37.2717 71.9274 39.8594C71.1384 30.2951 68.8781 21.4628 65.3681 14.4372C63.5742 10.8438 61.5241 7.87852 59.2926 5.5847C74.8212 9.96198 86.8599 22.7595 90.1482 38.7212C87.8361 36.8077 84.8732 35.6551 81.6425 35.6551V35.6522Z" fill="#DDD1C5"/>
<path d="M22.5026 71.3794C18.8803 71.3794 15.9347 68.4314 15.9347 64.8063C15.9347 63.596 14.9557 62.6162 13.7464 62.6162C12.537 62.6162 11.558 63.5989 11.558 64.8063C11.558 68.4314 8.61238 71.3794 4.9901 71.3794C3.78075 71.3794 2.80176 72.3621 2.80176 73.5695C2.80176 74.7769 3.78075 75.7596 4.9901 75.7596C8.61238 75.7596 11.558 78.7075 11.558 82.3327C11.558 83.543 12.537 84.5228 13.7464 84.5228C14.9557 84.5228 15.9347 83.5401 15.9347 82.3327C15.9347 78.7075 18.8803 75.7596 22.5026 75.7596C23.712 75.7596 24.6909 74.7769 24.6909 73.5695C24.6909 72.3621 23.712 71.3794 22.5026 71.3794ZM13.7435 75.7682C13.1186 74.9354 12.3786 74.1948 11.5465 73.5695C12.3786 72.9442 13.1186 72.2036 13.7435 71.3708C14.3683 72.2036 15.1083 72.9442 15.9405 73.5695C15.1083 74.1948 14.3683 74.9354 13.7435 75.7682Z" fill="#DDD1C5"/>
<path d="M77.1852 95.643C79.601 95.643 81.5647 97.6083 81.5647 100.026C81.5647 101.236 82.5437 102.216 83.7531 102.216C84.9624 102.216 85.9414 101.233 85.9414 100.026C85.9414 97.6083 87.9052 95.643 90.321 95.643C91.5303 95.643 92.5093 94.6603 92.5093 93.4529C92.5093 92.2455 91.5303 91.2628 90.321 91.2628C87.9052 91.2628 85.9414 89.2975 85.9414 86.8798C85.9414 85.6695 84.9624 84.6897 83.7531 84.6897C82.5437 84.6897 81.5647 85.6723 81.5647 86.8798C81.5647 89.2975 79.601 91.2628 77.1852 91.2628C75.9758 91.2628 74.9968 92.2455 74.9968 93.4529C74.9968 94.6603 75.9758 95.643 77.1852 95.643ZM83.756 92.6691C84.0007 92.9457 84.2599 93.208 84.5363 93.45C84.2599 93.695 83.9978 93.9543 83.756 94.2309C83.5112 93.9543 83.2521 93.6921 82.9756 93.45C83.2521 93.2051 83.5141 92.9457 83.756 92.6691Z" fill="#DDD1C5"/>
<path d="M57.9017 64.9877C60.3175 64.9877 62.2813 66.953 62.2813 69.3707C62.2813 70.581 63.2603 71.5608 64.4696 71.5608C65.679 71.5608 66.658 70.5782 66.658 69.3707C66.658 66.953 68.6217 64.9877 71.0375 64.9877C72.2469 64.9877 73.2259 64.005 73.2259 62.7976C73.2259 61.5902 72.2469 60.6075 71.0375 60.6075C68.6217 60.6075 66.658 58.6422 66.658 56.2245C66.658 55.0142 65.679 54.0344 64.4696 54.0344C63.2603 54.0344 62.2813 55.0171 62.2813 56.2245C62.2813 58.6422 60.3175 60.6075 57.9017 60.6075C56.6924 60.6075 55.7134 61.5902 55.7134 62.7976C55.7134 64.005 56.6924 64.9877 57.9017 64.9877ZM64.4725 62.0138C64.7173 62.2904 64.9764 62.5527 65.2528 62.7947C64.9764 63.0397 64.7144 63.299 64.4725 63.5757C64.2278 63.299 63.9686 63.0368 63.6922 62.7947C63.9686 62.5498 64.2306 62.2904 64.4725 62.0138Z" fill="#DDD1C5"/>
</g>
<defs>
<clipPath id="clip0_238_291">
<rect width="95" height="103" fill="white"/>
</clipPath>
</defs>
</svg>
