<svg width="101" height="101" viewBox="0 0 101 101" fill="none" xmlns="http://www.w3.org/2000/svg">
<g clip-path="url(#clip0_238_281)">
<path d="M98.8949 69.4366C100.056 69.4366 101 68.4956 101 67.3314V56.8112C101 55.6498 100.059 54.7061 98.8949 54.7061H61.0217C59.8603 54.7061 58.9165 55.647 58.9165 56.8112V65.2291H56.8113C55.65 65.2291 54.7062 66.17 54.7062 67.3342V77.8544C54.7062 79.0158 55.6471 79.9596 56.8113 79.9596H58.9165V86.2723H56.8113C55.65 86.2723 54.7062 87.2132 54.7062 88.3774V98.8976C54.7062 100.059 55.6471 101.003 56.8113 101.003H94.6846C95.8459 101.003 96.7897 100.062 96.7897 98.8976V90.4798H98.8949C100.056 90.4798 101 89.5388 101 88.3746V77.8544C101 76.693 100.059 75.7493 98.8949 75.7493H96.7897V69.4366H98.8949ZM63.124 58.9164H96.7897V65.2291H63.124V58.9164ZM92.5822 96.7896H58.9165V90.4769H92.5822V96.7896ZM96.7897 86.2694H63.124V79.9568H96.7897V86.2694ZM92.5822 75.7493H58.9165V69.4366H92.5822V75.7493Z" fill="#DDD1C5"/>
<path d="M44.1859 12.6252H6.31269C5.15132 12.6252 4.20753 13.5662 4.20753 14.7304V23.1483H2.10236C0.940986 23.1483 -0.00280762 24.0892 -0.00280762 25.2534V35.7736C-0.00280762 36.935 0.93816 37.8788 2.10236 37.8788H4.20753V44.1915H2.10236C0.940986 44.1915 -0.00280762 45.1324 -0.00280762 46.2966V56.8168C-0.00280762 57.9782 0.93816 58.922 2.10236 58.922H4.20753V65.2347H2.10236C0.940986 65.2347 -0.00280762 66.1756 -0.00280762 67.3398V77.86C-0.00280762 79.0214 0.93816 79.9652 2.10236 79.9652H4.20753V86.2779H2.10236C0.940986 86.2779 -0.00280762 87.2188 -0.00280762 88.383V98.9032C-0.00280762 100.065 0.93816 101.008 2.10236 101.008H39.9756C41.137 101.008 42.0808 100.067 42.0808 98.9032V90.4854H44.1859C45.3473 90.4854 46.2911 89.5444 46.2911 88.3802V77.86C46.2911 76.6986 45.3501 75.7548 44.1859 75.7548H42.0808V69.4422H44.1859C45.3473 69.4422 46.2911 68.5012 46.2911 67.337V56.8168C46.2911 55.6554 45.3501 54.7116 44.1859 54.7116H42.0808V48.399H44.1859C45.3473 48.399 46.2911 47.458 46.2911 46.2938V35.7736C46.2911 34.6122 45.3501 33.6684 44.1859 33.6684H42.0808V27.3558H44.1859C45.3473 27.3558 46.2911 26.4148 46.2911 25.2506V14.7304C46.2911 13.569 45.3501 12.6252 44.1859 12.6252ZM37.8732 96.7896H4.20753V90.4769H37.8732V96.7896ZM42.0836 86.2694H8.41786V79.9567H42.0836V86.2694ZM37.8732 75.7492H4.20753V69.4365H37.8732V75.7492ZM42.0836 65.229H8.41786V58.9163H42.0836V65.229ZM37.8732 54.7088H4.20753V48.3961H37.8732V54.7088ZM42.0836 44.1858H8.41786V37.8731H42.0836V44.1858ZM37.8732 33.6656H4.20753V27.3529H37.8732V33.6656ZM42.0836 23.1454H8.41786V16.8328H42.0836V23.1454Z" fill="#DDD1C5"/>
<path d="M77.8546 27.353C81.3358 27.353 84.1672 30.1844 84.1672 33.6657C84.1672 34.8271 85.1082 35.7709 86.2724 35.7709C87.4366 35.7709 88.3776 34.8299 88.3776 33.6657C88.3776 30.1844 91.209 27.353 94.6902 27.353C95.8516 27.353 96.7954 26.4121 96.7954 25.2479C96.7954 24.0837 95.8544 23.1427 94.6902 23.1427C91.209 23.1427 88.3776 20.3113 88.3776 16.83C88.3776 15.6686 87.4366 14.7249 86.2724 14.7249C85.1082 14.7249 84.1672 15.6658 84.1672 16.83C84.1672 20.3113 81.3358 23.1427 77.8546 23.1427C76.6932 23.1427 75.7494 24.0837 75.7494 25.2479C75.7494 26.4121 76.6904 27.353 77.8546 27.353ZM86.2696 23.1399C86.8686 23.9396 87.5807 24.6516 88.3804 25.2507C87.5807 25.8497 86.8686 26.5618 86.2696 27.3615C85.6705 26.5618 84.9584 25.8497 84.1588 25.2507C84.9584 24.6516 85.6705 23.9396 86.2696 23.1399Z" fill="#DDD1C5"/>
<path d="M61.0217 10.5201C63.3416 10.5201 65.2292 12.4077 65.2292 14.7276C65.2292 15.889 66.1701 16.8328 67.3343 16.8328C68.4985 16.8328 69.4395 15.8918 69.4395 14.7276C69.4395 12.4077 71.3271 10.5201 73.647 10.5201C74.8084 10.5201 75.7522 9.57911 75.7522 8.41491C75.7522 7.25071 74.8112 6.30975 73.647 6.30975C71.3271 6.30975 69.4395 4.42216 69.4395 2.10224C69.4395 0.940864 68.4985 -0.00292969 67.3343 -0.00292969C66.1701 -0.00292969 65.2292 0.938038 65.2292 2.10224C65.2292 4.42216 63.3416 6.30975 61.0217 6.30975C59.8603 6.30975 58.9165 7.25071 58.9165 8.41491C58.9165 9.57911 59.8575 10.5201 61.0217 10.5201ZM67.3315 7.6661C67.5661 7.93171 67.8175 8.1832 68.0832 8.41774C67.8175 8.65228 67.5661 8.90376 67.3315 9.16938C67.097 8.90376 66.8455 8.65228 66.5799 8.41774C66.8455 8.1832 67.097 7.93171 67.3315 7.6661Z" fill="#DDD1C5"/>
</g>
<defs>
<clipPath id="clip0_238_281">
<rect width="101" height="101" fill="white"/>
</clipPath>
</defs>
</svg>
