<svg width="113" height="114" viewBox="0 0 113 114" fill="none" xmlns="http://www.w3.org/2000/svg">
<g clip-path="url(#clip0_238_301)">
<path d="M20.433 9.08506C16.6772 9.08506 13.6229 6.02981 13.6229 2.27272C13.6229 1.01836 12.6079 0.00292969 11.3539 0.00292969C10.1 0.00292969 9.08491 1.02135 9.08491 2.27272C9.08491 6.02981 6.03069 9.08506 2.27488 9.08506C1.02095 9.08506 0.00585938 10.1035 0.00585938 11.3548C0.00585938 12.6062 1.02095 13.6246 2.27488 13.6246C6.03069 13.6246 9.08491 16.6799 9.08491 20.437C9.08491 21.6913 10.1 22.7068 11.3539 22.7068C12.6079 22.7068 13.6229 21.6883 13.6229 20.437C13.6229 16.6799 16.6772 13.6246 20.433 13.6246C21.6869 13.6246 22.702 12.6062 22.702 11.3548C22.702 10.1035 21.6869 9.08506 20.433 9.08506ZM11.3509 13.6336C10.7031 12.7705 9.93579 12.0029 9.07297 11.3548C9.93579 10.7068 10.7031 9.93922 11.3509 9.0761C11.9988 9.93922 12.7661 10.7068 13.6289 11.3548C12.7661 12.0029 11.9988 12.7705 11.3509 13.6336Z" fill="#DDD1C5"/>
<path d="M97.102 24.9825C99.6069 24.9825 101.643 27.0194 101.643 29.5251C101.643 30.7794 102.658 31.7949 103.912 31.7949C105.166 31.7949 106.181 30.7765 106.181 29.5251C106.181 27.0194 108.217 24.9825 110.722 24.9825C111.976 24.9825 112.991 23.9641 112.991 22.7127C112.991 21.4614 111.976 20.443 110.722 20.443C108.217 20.443 106.181 18.4061 106.181 15.9004C106.181 14.646 105.166 13.6306 103.912 13.6306C102.658 13.6306 101.643 14.649 101.643 15.9004C101.643 18.4061 99.6069 20.443 97.102 20.443C95.8481 20.443 94.833 21.4614 94.833 22.7127C94.833 23.9641 95.8481 24.9825 97.102 24.9825ZM103.915 21.9004C104.169 22.1871 104.438 22.4589 104.724 22.7098C104.438 22.9636 104.166 23.2324 103.915 23.5191C103.661 23.2324 103.393 22.9606 103.106 22.7098C103.393 22.4559 103.664 22.1871 103.915 21.9004Z" fill="#DDD1C5"/>
<path d="M88.0019 100.211C85.497 100.211 83.4609 98.1742 83.4609 95.6685C83.4609 94.4141 82.4428 93.3987 81.1918 93.3987C79.9409 93.3987 78.9228 94.4171 78.9228 95.6685C78.9228 98.1742 76.8867 100.211 74.3818 100.211C73.1279 100.211 72.1128 101.229 72.1128 102.481C72.1128 103.732 73.1309 104.751 74.3818 104.751C76.8867 104.751 78.9228 106.787 78.9228 109.293C78.9228 110.548 79.9379 111.563 81.1918 111.563C82.4458 111.563 83.4609 110.545 83.4609 109.293C83.4609 106.787 85.497 104.751 88.0019 104.751C89.2558 104.751 90.2709 103.732 90.2709 102.481C90.2709 101.229 89.2528 100.211 88.0019 100.211ZM81.1918 103.293C80.9381 103.006 80.6694 102.735 80.3828 102.484C80.6694 102.23 80.9411 101.961 81.1918 101.674C81.4456 101.961 81.7143 102.233 82.0009 102.484C81.7143 102.738 81.4426 103.006 81.1918 103.293Z" fill="#DDD1C5"/>
<path d="M110.6 88.468L78.6751 56.5327C77.875 55.7323 76.5733 55.7323 75.7732 56.5327L69.9693 50.7268L78.7289 41.9642C83.3774 45.4466 90.2113 42.1942 90.2113 36.2091C90.2113 34.2888 89.4649 32.4849 88.1065 31.129L66.3388 9.35397C63.5384 6.55258 58.9824 6.55258 56.182 9.35397C53.6085 11.9284 53.4084 15.9393 55.5073 18.7377C51.2708 22.9757 36.355 37.8965 29.2822 44.9717C24.5889 41.4565 17.7998 44.7955 17.7998 50.7268C17.7998 52.6472 18.5462 54.451 19.9046 55.8069L41.6722 77.5819C46.7596 82.671 53.9339 78.2898 53.9339 72.5018C53.9339 70.9279 53.4323 69.4346 52.5038 68.1982C53.6115 67.0902 56.176 64.5247 61.2634 59.4356L67.0673 65.2415C66.2672 66.0419 66.2672 67.344 67.0673 68.1444L98.9918 100.08C102.192 103.281 107.399 103.281 110.6 100.08C113.8 96.8781 113.8 91.6696 110.6 88.468ZM56.9075 57.9841L39.4928 40.5635L51.1006 28.9518L68.5153 46.3724C67.2853 47.6029 58.7018 56.1892 56.9075 57.9841ZM32.2379 47.8209L36.5908 43.4665L54.0055 60.8871L49.6526 65.2415L32.2379 47.8209ZM71.4173 43.4665L54.0026 26.0459L58.3555 21.6915L75.7702 39.1121L71.4173 43.4665ZM63.4369 12.2569L85.2045 34.0319C86.4077 35.2355 86.4077 37.1827 85.2045 38.3863C84.0043 39.5869 82.0518 39.5869 80.8516 38.3863C79.9828 37.5172 58.9347 16.462 59.084 16.6113C58.5018 16.0289 58.1823 15.2554 58.1823 14.4341C58.1823 11.6925 61.5142 10.3336 63.4369 12.2569ZM48.9241 74.676C48.1121 75.4884 46.464 76.5695 44.5712 74.676L22.8036 52.901C22.2214 52.3186 21.9019 51.5451 21.9019 50.7238C21.9019 49.0155 23.2843 47.6447 24.98 47.6447C26.6758 47.6447 27.4401 48.9319 27.882 49.2694C27.9178 49.3052 48.948 70.3425 48.9241 70.3186C49.5063 70.901 49.8258 71.6745 49.8258 72.4958C49.8258 73.3171 49.5063 74.0907 48.9241 74.673V74.676ZM67.0643 53.6267L72.8682 59.4326C72.6354 59.6656 70.2529 62.0488 69.9663 62.3356L64.1624 56.5297L67.0643 53.6267ZM107.695 97.1768C106.094 98.7776 103.491 98.7776 101.891 97.1768L71.4173 66.6929L77.2212 60.8871L107.695 91.3709C109.295 92.9717 109.295 95.576 107.695 97.1768Z" fill="#DDD1C5"/>
<path d="M63.7504 109.893H61.6993V105.127C61.6993 101.438 59.0422 98.3623 55.5431 97.7082V95.6087C55.5431 91.0333 51.8231 87.312 47.2493 87.312H24.8427C20.2689 87.312 16.5489 91.0333 16.5489 95.6087V97.7082C13.0498 98.3623 10.3927 101.438 10.3927 105.127V109.893H8.3416C7.20709 109.893 6.29053 110.813 6.29053 111.945C6.29053 113.077 7.21008 113.997 8.3416 113.997H63.7504C64.8849 113.997 65.8014 113.077 65.8014 111.945C65.8014 110.813 64.8819 109.893 63.7504 109.893ZM20.654 95.6087C20.654 93.2971 22.5319 91.4185 24.8427 91.4185H47.2493C49.5601 91.4185 51.438 93.2971 51.438 95.6087V97.5768H20.654V95.6087ZM14.4978 109.893V105.127C14.4978 103.227 16.0413 101.683 17.9401 101.683H54.1518C56.0507 101.683 57.5942 103.227 57.5942 105.127V109.893H14.4978Z" fill="#DDD1C5"/>
</g>
<defs>
<clipPath id="clip0_238_301">
<rect width="113" height="114" fill="white"/>
</clipPath>
</defs>
</svg>
