<svg width="121" height="120" viewBox="0 0 121 120" fill="none" xmlns="http://www.w3.org/2000/svg">
<g clip-path="url(#clip0_238_312)">
<path d="M103.935 58.1909L77.8625 78.2536C77.1668 72.9915 72.6542 68.9143 67.2051 68.9143H24.1955V63.5394C24.1955 62.0537 22.9921 60.8501 21.5067 60.8501C17.1256 60.8952 15.7192 60.7711 14.1397 60.9366H14.1322C14.1322 60.9366 14.1021 60.9404 14.0758 60.9404C14.0382 60.9441 14.0044 60.9479 13.9667 60.9517C13.8803 60.9592 13.7599 60.9742 13.6095 61.0006C13.5681 61.0043 13.5268 61.0118 13.4816 61.0194C13.4177 61.0269 13.3575 61.0382 13.2936 61.0495C12.3008 61.23 10.4807 61.6926 8.0965 62.8511C3.27169 65.5517 0 70.716 0 76.6287V104.221C0 112.921 7.07739 120 15.7756 120H21.5067C22.9921 120 24.1955 118.796 24.1955 117.314V109.401L69.6081 111.932C69.6607 111.936 69.7096 111.936 69.7585 111.936C70.3677 111.936 70.9619 111.729 71.4395 111.345L117.021 74.8722C119.642 72.7771 121.09 69.6515 120.996 66.2964C120.756 57.7094 110.85 52.8724 103.935 58.1909ZM18.8179 114.625H15.7756C10.0407 114.625 5.37761 109.957 5.37761 104.221V76.6287C5.37761 70.8927 10.0407 66.225 15.7756 66.225H18.8179V114.625ZM113.663 70.6746L68.8823 106.505L24.1955 104.015V74.2929H67.2051C70.1722 74.2929 72.5827 76.7039 72.5827 79.6716C72.5827 82.6392 70.1722 85.0464 67.2051 85.0464H37.6358C36.1503 85.0464 34.9469 86.2501 34.9469 87.7358C34.9469 89.2215 36.1503 90.4251 37.6358 90.4251H67.2051C69.5705 90.4251 71.7554 89.6578 73.5304 88.3601C73.7109 88.2435 92.3294 73.9018 107.214 62.4524C110.621 59.8308 115.502 62.2155 115.622 66.4469C115.668 68.1019 114.953 69.6402 113.663 70.6746Z" fill="#DDD1C5"/>
<path d="M74.6774 29.432C79.3104 29.432 83.0785 33.2008 83.0785 37.8347C83.0785 39.3806 84.3307 40.6368 85.8801 40.6368C87.4294 40.6368 88.6817 39.3843 88.6817 37.8347C88.6817 33.2008 92.4498 29.432 97.0828 29.432C98.6284 29.432 99.8844 28.1795 99.8844 26.6298C99.8844 25.0802 98.6322 23.8277 97.0828 23.8277C92.4498 23.8277 88.6817 20.0589 88.6817 15.425C88.6817 13.8791 87.4294 12.6228 85.8801 12.6228C84.3307 12.6228 83.0785 13.8753 83.0785 15.425C83.0785 20.0589 79.3104 23.8277 74.6774 23.8277C73.1318 23.8277 71.8757 25.0802 71.8757 26.6298C71.8757 28.1795 73.128 29.432 74.6774 29.432ZM85.8763 23.8201C86.6736 24.8846 87.6212 25.8324 88.6855 26.6298C87.6212 27.4272 86.6736 28.3751 85.8763 29.4395C85.0791 28.3751 84.1314 27.4272 83.0672 26.6298C84.1314 25.8324 85.0791 24.8846 85.8763 23.8201Z" fill="#DDD1C5"/>
<path d="M43.2692 14.0034C46.3566 14.0034 48.8686 16.5159 48.8686 19.6039C48.8686 21.1498 50.1209 22.4061 51.6703 22.4061C53.2196 22.4061 54.4719 21.1536 54.4719 19.6039C54.4719 16.5159 56.9839 14.0034 60.0714 14.0034C61.617 14.0034 62.873 12.7509 62.873 11.2012C62.873 9.65155 61.6207 8.39905 60.0714 8.39905C56.9839 8.39905 54.4719 5.88651 54.4719 2.79849C54.4719 1.25261 53.2196 -0.00366211 51.6703 -0.00366211C50.1209 -0.00366211 48.8686 1.24885 48.8686 2.79849C48.8686 5.88651 46.3566 8.39905 43.2692 8.39905C41.7236 8.39905 40.4675 9.65155 40.4675 11.2012C40.4675 12.7509 41.7198 14.0034 43.2692 14.0034ZM51.6703 10.2045C51.9824 10.558 52.3171 10.8928 52.6706 11.205C52.3171 11.5172 51.9824 11.8519 51.6703 12.2055C51.3581 11.8519 51.0234 11.5172 50.6699 11.205C51.0234 10.8928 51.3581 10.558 51.6703 10.2045Z" fill="#DDD1C5"/>
<path d="M48.3006 55.5842C51.3881 55.5842 53.9001 58.0967 53.9001 61.1847C53.9001 62.7306 55.1524 63.9869 56.7018 63.9869C58.2511 63.9869 59.5034 62.7344 59.5034 61.1847C59.5034 58.0967 62.0154 55.5842 65.1029 55.5842C66.6484 55.5842 67.9045 54.3317 67.9045 52.782C67.9045 51.2324 66.6522 49.9799 65.1029 49.9799C62.0154 49.9799 59.5034 47.4673 59.5034 44.3793C59.5034 42.8334 58.2511 41.5771 56.7018 41.5771C55.1524 41.5771 53.9001 42.8297 53.9001 44.3793C53.9001 47.4673 51.3881 49.9799 48.3006 49.9799C46.7551 49.9799 45.499 51.2324 45.499 52.782C45.499 54.3317 46.7513 55.5842 48.3006 55.5842ZM56.7018 51.7853C57.0139 52.1388 57.3486 52.4736 57.7021 52.7858C57.3486 53.098 57.0139 53.4327 56.7018 53.7863C56.3896 53.4327 56.0549 53.098 55.7014 52.7858C56.0549 52.4736 56.3896 52.1388 56.7018 51.7853Z" fill="#DDD1C5"/>
</g>
<defs>
<clipPath id="clip0_238_312">
<rect width="121" height="120" fill="white"/>
</clipPath>
</defs>
</svg>
